<svg xmlns="http://www.w3.org/2000/svg" viewBox="0 0 1202 436" width="1202" height="436" role="img" aria-label="ZAPKIT — обложка магазина (компьютер)"><title>ZAPKIT — обложка магазина (компьютер)</title><rect width="1202" height="436" fill="#14161A"/><path d="M1060,0 H1120 L1202,82 V142 Z" fill="#FFC72C"/><g transform="translate(80 150) scale(0.9)"><g transform="translate(0 -30) scale(1.5)"><defs><clipPath id="wb-cd"><path d="M8,60 C8,43 23,34 42,34 C57,34 67,41 71,51 C76,47 79,41 81.5,31 L86.5,31 C88,48 81,60 70,64 C66,76 54,84 38,84 C20,84 8,75 8,60 Z"/></clipPath></defs><path fill="#FFC72C" d="M8,60 C8,43 23,34 42,34 C57,34 67,41 71,51 C76,47 79,41 81.5,31 L86.5,31 C88,48 81,60 70,64 C66,76 54,84 38,84 C20,84 8,75 8,60 Z"/><path fill="#FFC72C" d="M84,36 C80,28 73,25 66,26 C70,19 79,19 84,27 C89,19 98,19 102,26 C95,25 88,28 84,36 Z"/><g clip-path="url(#wb-cd)" fill="#14161A"><rect x="40" y="30" width="8" height="60"/><rect x="0" y="64" width="90" height="7"/></g><circle cx="22" cy="55" r="3.6" fill="#14161A"/><path d="M28,28 V18 M28,22 C24,18 20,18 17,20 M28,22 C32,18 36,18 39,20" fill="none" stroke="#FFC72C" stroke-width="4.4" stroke-linecap="round"/></g><g transform="translate(176 0)"><defs><clipPath id="c66-cd"><rect width="66" height="100"/></clipPath><clipPath id="c18-cd"><rect width="18" height="100"/></clipPath></defs><g transform="translate(0 0)"><path clip-path="url(#c66-cd)" d="M0,9 H57 L9,91 H66" fill="none" stroke="#FAF7F0" stroke-width="18" stroke-linejoin="miter" stroke-miterlimit="10"/></g><g transform="translate(80 0)"><path clip-path="url(#c66-cd)" d="M9,100 V36 L28,9 H38 L57,36 V100 M9,62 H57" fill="none" stroke="#FAF7F0" stroke-width="18" stroke-linejoin="miter" stroke-miterlimit="10"/></g><g transform="translate(160 0)"><path clip-path="url(#c66-cd)" d="M9,100 V9 H44 A13,13 0 0 1 57,22 V45 A13,13 0 0 1 44,58 H9" fill="none" stroke="#FAF7F0" stroke-width="18" stroke-linejoin="miter" stroke-miterlimit="10"/></g><g transform="translate(240 0)"><path clip-path="url(#c66-cd)" d="M9,0 V100 M9,64 L62,-6 M30,44 L66,106" fill="none" stroke="#FFC72C" stroke-width="18" stroke-linejoin="miter" stroke-miterlimit="10"/></g><g transform="translate(320 0)"><path clip-path="url(#c18-cd)" d="M9,0 V100" fill="none" stroke="#FFC72C" stroke-width="18" stroke-linejoin="miter" stroke-miterlimit="10"/></g><g transform="translate(352 0)"><path clip-path="url(#c66-cd)" d="M0,9 H66 M33,9 V100" fill="none" stroke="#FFC72C" stroke-width="18" stroke-linejoin="miter" stroke-miterlimit="10"/></g></g></g><text x="238" y="300" font-family="'Liberation Sans', Arial, Helvetica, sans-serif" font-size="27" font-weight="700" fill="#FAF7F0" text-anchor="start" textLength="376.6" lengthAdjust="spacing">РЕМОНТ В ОДНОЙ КОРОБКЕ</text><text x="238" y="338" font-family="'Liberation Sans', Arial, Helvetica, sans-serif" font-size="19" font-weight="700" fill="#8C929B" text-anchor="start">Запчасти наборами под конкретный ремонт</text><g transform="translate(690 150) scale(0.9333333333333333)"><rect width="30" height="30" rx="8" fill="#FFC72C"/><path d="M8,15.5 L13,20.5 L22,10" fill="none" stroke="#14161A" stroke-width="3.6" stroke-linecap="round" stroke-linejoin="round"/></g><text x="730" y="173" font-family="'Liberation Sans', Arial, Helvetica, sans-serif" font-size="24" font-weight="700" fill="#FAF7F0" text-anchor="start">Всё до болта — в одной коробке</text><g transform="translate(690 212) scale(0.9333333333333333)"><rect width="30" height="30" rx="8" fill="#FFC72C"/><path d="M8,15.5 L13,20.5 L22,10" fill="none" stroke="#14161A" stroke-width="3.6" stroke-linecap="round" stroke-linejoin="round"/></g><text x="730" y="235" font-family="'Liberation Sans', Arial, Helvetica, sans-serif" font-size="24" font-weight="700" fill="#FAF7F0" text-anchor="start">Подбор по VIN с гарантией</text><g transform="translate(690 274) scale(0.9333333333333333)"><rect width="30" height="30" rx="8" fill="#FFC72C"/><path d="M8,15.5 L13,20.5 L22,10" fill="none" stroke="#14161A" stroke-width="3.6" stroke-linecap="round" stroke-linejoin="round"/></g><text x="730" y="297" font-family="'Liberation Sans', Arial, Helvetica, sans-serif" font-size="24" font-weight="700" fill="#FAF7F0" text-anchor="start">Не хватило детали — довезём</text></svg>
