<svg xmlns="http://www.w3.org/2000/svg" viewBox="0 0 1600 1200" width="1600" height="1200" role="img" aria-label="ZAPKIT — фирменный стиль"><title>ZAPKIT — фирменный стиль</title><rect width="1600" height="1200" fill="#FAF7F0"/><text x="60" y="80" font-family="'Liberation Sans', Arial, Helvetica, sans-serif" font-size="34" font-weight="700" fill="#14161A" text-anchor="start">ZAPKIT · фирменный стиль</text><text x="60" y="116" font-family="'Liberation Sans', Arial, Helvetica, sans-serif" font-size="22" font-weight="400" fill="#8C929B" text-anchor="start">Запчасти наборами. Ремонт в одной коробке.</text><rect x="60" y="150" width="960" height="330" rx="24" fill="#FFFFFF"/><g transform="translate(128 232) scale(1.3)"><g transform="translate(0 -30) scale(1.5)"><defs><clipPath id="wb-bb1"><path d="M8,60 C8,43 23,34 42,34 C57,34 67,41 71,51 C76,47 79,41 81.5,31 L86.5,31 C88,48 81,60 70,64 C66,76 54,84 38,84 C20,84 8,75 8,60 Z"/></clipPath></defs><path fill="#14161A" d="M8,60 C8,43 23,34 42,34 C57,34 67,41 71,51 C76,47 79,41 81.5,31 L86.5,31 C88,48 81,60 70,64 C66,76 54,84 38,84 C20,84 8,75 8,60 Z"/><path fill="#14161A" d="M84,36 C80,28 73,25 66,26 C70,19 79,19 84,27 C89,19 98,19 102,26 C95,25 88,28 84,36 Z"/><g clip-path="url(#wb-bb1)" fill="#FFFFFF"><rect x="40" y="30" width="8" height="60"/><rect x="0" y="64" width="90" height="7"/></g><circle cx="22" cy="55" r="3.6" fill="#FFFFFF"/><path d="M28,28 V18 M28,22 C24,18 20,18 17,20 M28,22 C32,18 36,18 39,20" fill="none" stroke="#14161A" stroke-width="4.4" stroke-linecap="round"/></g><g transform="translate(176 0)"><defs><clipPath id="c66-bb1"><rect width="66" height="100"/></clipPath><clipPath id="c18-bb1"><rect width="18" height="100"/></clipPath></defs><g transform="translate(0 0)"><path clip-path="url(#c66-bb1)" d="M0,9 H57 L9,91 H66" fill="none" stroke="#14161A" stroke-width="18" stroke-linejoin="miter" stroke-miterlimit="10"/></g><g transform="translate(80 0)"><path clip-path="url(#c66-bb1)" d="M9,100 V36 L28,9 H38 L57,36 V100 M9,62 H57" fill="none" stroke="#14161A" stroke-width="18" stroke-linejoin="miter" stroke-miterlimit="10"/></g><g transform="translate(160 0)"><path clip-path="url(#c66-bb1)" d="M9,100 V9 H44 A13,13 0 0 1 57,22 V45 A13,13 0 0 1 44,58 H9" fill="none" stroke="#14161A" stroke-width="18" stroke-linejoin="miter" stroke-miterlimit="10"/></g><g transform="translate(240 0)"><path clip-path="url(#c66-bb1)" d="M9,0 V100 M9,64 L62,-6 M30,44 L66,106" fill="none" stroke="#14161A" stroke-width="18" stroke-linejoin="miter" stroke-miterlimit="10"/></g><g transform="translate(320 0)"><path clip-path="url(#c18-bb1)" d="M9,0 V100" fill="none" stroke="#14161A" stroke-width="18" stroke-linejoin="miter" stroke-miterlimit="10"/></g><g transform="translate(352 0)"><path clip-path="url(#c66-bb1)" d="M0,9 H66 M33,9 V100" fill="none" stroke="#14161A" stroke-width="18" stroke-linejoin="miter" stroke-miterlimit="10"/></g></g></g><text x="90" y="455" font-family="'Liberation Sans', Arial, Helvetica, sans-serif" font-size="18" font-weight="400" fill="#8C929B" text-anchor="start">Основной логотип</text><rect x="60" y="500" width="470" height="200" rx="24" fill="#14161A"/><g transform="translate(92 562) scale(0.66)"><g transform="translate(0 -30) scale(1.5)"><defs><clipPath id="wb-bb2"><path d="M8,60 C8,43 23,34 42,34 C57,34 67,41 71,51 C76,47 79,41 81.5,31 L86.5,31 C88,48 81,60 70,64 C66,76 54,84 38,84 C20,84 8,75 8,60 Z"/></clipPath></defs><path fill="#FFC72C" d="M8,60 C8,43 23,34 42,34 C57,34 67,41 71,51 C76,47 79,41 81.5,31 L86.5,31 C88,48 81,60 70,64 C66,76 54,84 38,84 C20,84 8,75 8,60 Z"/><path fill="#FFC72C" d="M84,36 C80,28 73,25 66,26 C70,19 79,19 84,27 C89,19 98,19 102,26 C95,25 88,28 84,36 Z"/><g clip-path="url(#wb-bb2)" fill="#14161A"><rect x="40" y="30" width="8" height="60"/><rect x="0" y="64" width="90" height="7"/></g><circle cx="22" cy="55" r="3.6" fill="#14161A"/><path d="M28,28 V18 M28,22 C24,18 20,18 17,20 M28,22 C32,18 36,18 39,20" fill="none" stroke="#FFC72C" stroke-width="4.4" stroke-linecap="round"/></g><g transform="translate(176 0)"><defs><clipPath id="c66-bb2"><rect width="66" height="100"/></clipPath><clipPath id="c18-bb2"><rect width="18" height="100"/></clipPath></defs><g transform="translate(0 0)"><path clip-path="url(#c66-bb2)" d="M0,9 H57 L9,91 H66" fill="none" stroke="#FAF7F0" stroke-width="18" stroke-linejoin="miter" stroke-miterlimit="10"/></g><g transform="translate(80 0)"><path clip-path="url(#c66-bb2)" d="M9,100 V36 L28,9 H38 L57,36 V100 M9,62 H57" fill="none" stroke="#FAF7F0" stroke-width="18" stroke-linejoin="miter" stroke-miterlimit="10"/></g><g transform="translate(160 0)"><path clip-path="url(#c66-bb2)" d="M9,100 V9 H44 A13,13 0 0 1 57,22 V45 A13,13 0 0 1 44,58 H9" fill="none" stroke="#FAF7F0" stroke-width="18" stroke-linejoin="miter" stroke-miterlimit="10"/></g><g transform="translate(240 0)"><path clip-path="url(#c66-bb2)" d="M9,0 V100 M9,64 L62,-6 M30,44 L66,106" fill="none" stroke="#FFC72C" stroke-width="18" stroke-linejoin="miter" stroke-miterlimit="10"/></g><g transform="translate(320 0)"><path clip-path="url(#c18-bb2)" d="M9,0 V100" fill="none" stroke="#FFC72C" stroke-width="18" stroke-linejoin="miter" stroke-miterlimit="10"/></g><g transform="translate(352 0)"><path clip-path="url(#c66-bb2)" d="M0,9 H66 M33,9 V100" fill="none" stroke="#FFC72C" stroke-width="18" stroke-linejoin="miter" stroke-miterlimit="10"/></g></g></g><text x="90" y="680" font-family="'Liberation Sans', Arial, Helvetica, sans-serif" font-size="18" font-weight="400" fill="#C9CDD3" text-anchor="start">На тёмном: KIT — жёлтым</text><rect x="550" y="500" width="470" height="200" rx="24" fill="#FFC72C"/><g transform="translate(582 562) scale(0.66)"><g transform="translate(0 -30) scale(1.5)"><defs><clipPath id="wb-bb3"><path d="M8,60 C8,43 23,34 42,34 C57,34 67,41 71,51 C76,47 79,41 81.5,31 L86.5,31 C88,48 81,60 70,64 C66,76 54,84 38,84 C20,84 8,75 8,60 Z"/></clipPath></defs><path fill="#14161A" d="M8,60 C8,43 23,34 42,34 C57,34 67,41 71,51 C76,47 79,41 81.5,31 L86.5,31 C88,48 81,60 70,64 C66,76 54,84 38,84 C20,84 8,75 8,60 Z"/><path fill="#14161A" d="M84,36 C80,28 73,25 66,26 C70,19 79,19 84,27 C89,19 98,19 102,26 C95,25 88,28 84,36 Z"/><g clip-path="url(#wb-bb3)" fill="#FFC72C"><rect x="40" y="30" width="8" height="60"/><rect x="0" y="64" width="90" height="7"/></g><circle cx="22" cy="55" r="3.6" fill="#FFC72C"/><path d="M28,28 V18 M28,22 C24,18 20,18 17,20 M28,22 C32,18 36,18 39,20" fill="none" stroke="#14161A" stroke-width="4.4" stroke-linecap="round"/></g><g transform="translate(176 0)"><defs><clipPath id="c66-bb3"><rect width="66" height="100"/></clipPath><clipPath id="c18-bb3"><rect width="18" height="100"/></clipPath></defs><g transform="translate(0 0)"><path clip-path="url(#c66-bb3)" d="M0,9 H57 L9,91 H66" fill="none" stroke="#14161A" stroke-width="18" stroke-linejoin="miter" stroke-miterlimit="10"/></g><g transform="translate(80 0)"><path clip-path="url(#c66-bb3)" d="M9,100 V36 L28,9 H38 L57,36 V100 M9,62 H57" fill="none" stroke="#14161A" stroke-width="18" stroke-linejoin="miter" stroke-miterlimit="10"/></g><g transform="translate(160 0)"><path clip-path="url(#c66-bb3)" d="M9,100 V9 H44 A13,13 0 0 1 57,22 V45 A13,13 0 0 1 44,58 H9" fill="none" stroke="#14161A" stroke-width="18" stroke-linejoin="miter" stroke-miterlimit="10"/></g><g transform="translate(240 0)"><path clip-path="url(#c66-bb3)" d="M9,0 V100 M9,64 L62,-6 M30,44 L66,106" fill="none" stroke="#14161A" stroke-width="18" stroke-linejoin="miter" stroke-miterlimit="10"/></g><g transform="translate(320 0)"><path clip-path="url(#c18-bb3)" d="M9,0 V100" fill="none" stroke="#14161A" stroke-width="18" stroke-linejoin="miter" stroke-miterlimit="10"/></g><g transform="translate(352 0)"><path clip-path="url(#c66-bb3)" d="M0,9 H66 M33,9 V100" fill="none" stroke="#14161A" stroke-width="18" stroke-linejoin="miter" stroke-miterlimit="10"/></g></g></g><text x="580" y="680" font-family="'Liberation Sans', Arial, Helvetica, sans-serif" font-size="18" font-weight="400" fill="#14161A" text-anchor="start">На жёлтом</text><rect x="60" y="720" width="960" height="150" rx="24" fill="#FFFFFF"/><g transform="translate(92 766) scale(0.55)"><g transform="translate(0 -30) scale(1.5)"><defs><clipPath id="wb-bb4"><path d="M8,60 C8,43 23,34 42,34 C57,34 67,41 71,51 C76,47 79,41 81.5,31 L86.5,31 C88,48 81,60 70,64 C66,76 54,84 38,84 C20,84 8,75 8,60 Z"/></clipPath></defs><path fill="#14161A" d="M8,60 C8,43 23,34 42,34 C57,34 67,41 71,51 C76,47 79,41 81.5,31 L86.5,31 C88,48 81,60 70,64 C66,76 54,84 38,84 C20,84 8,75 8,60 Z"/><path fill="#14161A" d="M84,36 C80,28 73,25 66,26 C70,19 79,19 84,27 C89,19 98,19 102,26 C95,25 88,28 84,36 Z"/><g clip-path="url(#wb-bb4)" fill="#FFFFFF"><rect x="40" y="30" width="8" height="60"/><rect x="0" y="64" width="90" height="7"/></g><circle cx="22" cy="55" r="3.6" fill="#FFFFFF"/><path d="M28,28 V18 M28,22 C24,18 20,18 17,20 M28,22 C32,18 36,18 39,20" fill="none" stroke="#14161A" stroke-width="4.4" stroke-linecap="round"/></g><g transform="translate(176 0)"><defs><clipPath id="c66-bb4"><rect width="66" height="100"/></clipPath><clipPath id="c18-bb4"><rect width="18" height="100"/></clipPath></defs><g transform="translate(0 0)"><path clip-path="url(#c66-bb4)" d="M0,9 H44 A13,13 0 0 1 57,22 V37 A13,13 0 0 1 44,50 H16 M16,50 H44 A13,13 0 0 1 57,63 V78 A13,13 0 0 1 44,91 H0" fill="none" stroke="#14161A" stroke-width="18" stroke-linejoin="miter" stroke-miterlimit="10"/></g><g transform="translate(80 0)"><path clip-path="url(#c66-bb4)" d="M9,100 V36 L28,9 H38 L57,36 V100 M9,62 H57" fill="none" stroke="#14161A" stroke-width="18" stroke-linejoin="miter" stroke-miterlimit="10"/></g><g transform="translate(160 0)"><path clip-path="url(#c66-bb4)" d="M9,100 V9 H44 A13,13 0 0 1 57,22 V100" fill="none" stroke="#14161A" stroke-width="18" stroke-linejoin="miter" stroke-miterlimit="10"/></g><g transform="translate(240 0)"><path clip-path="url(#c66-bb4)" d="M9,0 V100 M9,64 L62,-6 M30,44 L66,106" fill="none" stroke="#14161A" stroke-width="18" stroke-linejoin="miter" stroke-miterlimit="10"/></g><g transform="translate(320 0)"><path clip-path="url(#c66-bb4)" d="M9,0 V100 M57,0 V100 M9,100 L57,0" fill="none" stroke="#14161A" stroke-width="18" stroke-linejoin="miter" stroke-miterlimit="10"/></g><g transform="translate(400 0)"><path clip-path="url(#c66-bb4)" d="M0,9 H66 M33,9 V100" fill="none" stroke="#14161A" stroke-width="18" stroke-linejoin="miter" stroke-miterlimit="10"/></g></g></g><text x="560" y="792" font-family="'Liberation Sans', Arial, Helvetica, sans-serif" font-size="20" font-weight="700" fill="#14161A" text-anchor="start">Вариант кириллицей</text><text x="560" y="822" font-family="'Liberation Sans', Arial, Helvetica, sans-serif" font-size="18" font-weight="400" fill="#8C929B" text-anchor="start">для тех, кто не читает латиницу:</text><text x="560" y="848" font-family="'Liberation Sans', Arial, Helvetica, sans-serif" font-size="18" font-weight="400" fill="#8C929B" text-anchor="start">вывески, печать для старшей аудитории</text><rect x="1050" y="150" width="490" height="330" rx="24" fill="#FFFFFF"/><g transform="translate(1080 200.0)"><clipPath id="av0"><circle cx="90.0" cy="90.0" r="90.0"/></clipPath><g clip-path="url(#av0)"><rect width="180" height="180" fill="#FFC72C"/><g transform="scale(1.8) translate(50 52) scale(0.8) translate(-55 -52)"><defs><clipPath id="wb-av0"><path d="M8,60 C8,43 23,34 42,34 C57,34 67,41 71,51 C76,47 79,41 81.5,31 L86.5,31 C88,48 81,60 70,64 C66,76 54,84 38,84 C20,84 8,75 8,60 Z"/></clipPath></defs><path fill="#14161A" d="M8,60 C8,43 23,34 42,34 C57,34 67,41 71,51 C76,47 79,41 81.5,31 L86.5,31 C88,48 81,60 70,64 C66,76 54,84 38,84 C20,84 8,75 8,60 Z"/><path fill="#14161A" d="M84,36 C80,28 73,25 66,26 C70,19 79,19 84,27 C89,19 98,19 102,26 C95,25 88,28 84,36 Z"/><g clip-path="url(#wb-av0)" fill="#FFC72C"><rect x="40" y="30" width="8" height="60"/><rect x="0" y="64" width="90" height="7"/></g><circle cx="22" cy="55" r="3.6" fill="#FFC72C"/><path d="M28,28 V18 M28,22 C24,18 20,18 17,20 M28,22 C32,18 36,18 39,20" fill="none" stroke="#14161A" stroke-width="4.4" stroke-linecap="round"/></g></g></g><g transform="translate(1290 248.0)"><clipPath id="av1"><circle cx="42.0" cy="42.0" r="42.0"/></clipPath><g clip-path="url(#av1)"><rect width="84" height="84" fill="#FFC72C"/><g transform="scale(0.84) translate(50 52) scale(0.8) translate(-55 -52)"><defs><clipPath id="wb-av1"><path d="M8,60 C8,43 23,34 42,34 C57,34 67,41 71,51 C76,47 79,41 81.5,31 L86.5,31 C88,48 81,60 70,64 C66,76 54,84 38,84 C20,84 8,75 8,60 Z"/></clipPath></defs><path fill="#14161A" d="M8,60 C8,43 23,34 42,34 C57,34 67,41 71,51 C76,47 79,41 81.5,31 L86.5,31 C88,48 81,60 70,64 C66,76 54,84 38,84 C20,84 8,75 8,60 Z"/><path fill="#14161A" d="M84,36 C80,28 73,25 66,26 C70,19 79,19 84,27 C89,19 98,19 102,26 C95,25 88,28 84,36 Z"/><g clip-path="url(#wb-av1)" fill="#FFC72C"><rect x="40" y="30" width="8" height="60"/><rect x="0" y="64" width="90" height="7"/></g><circle cx="22" cy="55" r="3.6" fill="#FFC72C"/><path d="M28,28 V18 M28,22 C24,18 20,18 17,20 M28,22 C32,18 36,18 39,20" fill="none" stroke="#14161A" stroke-width="4.4" stroke-linecap="round"/></g></g></g><g transform="translate(1400 266.0)"><clipPath id="av2"><circle cx="24.0" cy="24.0" r="24.0"/></clipPath><g clip-path="url(#av2)"><rect width="48" height="48" fill="#FFC72C"/><g transform="scale(0.48) translate(50 52) scale(0.8) translate(-55 -52)"><defs><clipPath id="wb-av2"><path d="M8,60 C8,43 23,34 42,34 C57,34 67,41 71,51 C76,47 79,41 81.5,31 L86.5,31 C88,48 81,60 70,64 C66,76 54,84 38,84 C20,84 8,75 8,60 Z"/></clipPath></defs><path fill="#14161A" d="M8,60 C8,43 23,34 42,34 C57,34 67,41 71,51 C76,47 79,41 81.5,31 L86.5,31 C88,48 81,60 70,64 C66,76 54,84 38,84 C20,84 8,75 8,60 Z"/><path fill="#14161A" d="M84,36 C80,28 73,25 66,26 C70,19 79,19 84,27 C89,19 98,19 102,26 C95,25 88,28 84,36 Z"/><g clip-path="url(#wb-av2)" fill="#FFC72C"><rect x="40" y="30" width="8" height="60"/><rect x="0" y="64" width="90" height="7"/></g><circle cx="22" cy="55" r="3.6" fill="#FFC72C"/><path d="M28,28 V18 M28,22 C24,18 20,18 17,20 M28,22 C32,18 36,18 39,20" fill="none" stroke="#14161A" stroke-width="4.4" stroke-linecap="round"/></g></g></g><text x="1080" y="455" font-family="'Liberation Sans', Arial, Helvetica, sans-serif" font-size="18" font-weight="400" fill="#8C929B" text-anchor="start">Аватар на Авито: 180 / 84 / 48 px</text><rect x="1050" y="500" width="490" height="370" rx="24" fill="#FFFFFF"/><g transform="translate(1155 520) scale(0.7)"><defs><path id="top-bbs" d="M56.0,200.0 A144.0,144.0 0 0 1 344.0,200.0"/><path id="bot-bbs" d="M30.0,200.0 A170.0,170.0 0 0 0 370.0,200.0"/></defs><circle cx="200.0" cy="200.0" r="200.0" fill="#FFC72C"/><circle cx="200.0" cy="200.0" r="188.0" fill="none" stroke="#14161A" stroke-width="4"/><text font-family="'Liberation Sans', Arial, sans-serif" font-size="46" font-weight="700" fill="#14161A" letter-spacing="10"><textPath href="#top-bbs" startOffset="50%" text-anchor="middle">ZAPKIT</textPath></text><text font-family="'Liberation Sans', Arial, sans-serif" font-size="22" font-weight="700" fill="#14161A" letter-spacing="3"><textPath href="#bot-bbs" startOffset="50%" text-anchor="middle">РЕМОНТ В ОДНОЙ КОРОБКЕ</textPath></text><g transform="translate(96.0 112.0) scale(1.9)"><defs><clipPath id="wb-bbs"><path d="M8,60 C8,43 23,34 42,34 C57,34 67,41 71,51 C76,47 79,41 81.5,31 L86.5,31 C88,48 81,60 70,64 C66,76 54,84 38,84 C20,84 8,75 8,60 Z"/></clipPath></defs><path fill="#14161A" d="M8,60 C8,43 23,34 42,34 C57,34 67,41 71,51 C76,47 79,41 81.5,31 L86.5,31 C88,48 81,60 70,64 C66,76 54,84 38,84 C20,84 8,75 8,60 Z"/><path fill="#14161A" d="M84,36 C80,28 73,25 66,26 C70,19 79,19 84,27 C89,19 98,19 102,26 C95,25 88,28 84,36 Z"/><g clip-path="url(#wb-bbs)" fill="#FFC72C"><rect x="40" y="30" width="8" height="60"/><rect x="0" y="64" width="90" height="7"/></g><circle cx="22" cy="55" r="3.6" fill="#FFC72C"/><path d="M28,28 V18 M28,22 C24,18 20,18 17,20 M28,22 C32,18 36,18 39,20" fill="none" stroke="#14161A" stroke-width="4.4" stroke-linecap="round"/></g></g><text x="1080" y="850" font-family="'Liberation Sans', Arial, Helvetica, sans-serif" font-size="18" font-weight="400" fill="#8C929B" text-anchor="start">Наклейка на коробку (Ø 6 см)</text><rect x="60" y="900" width="280" height="200" rx="20" fill="#FFC72C" stroke="#E4E0D8" stroke-width="2"/><text x="84" y="1050" font-family="'Liberation Sans', Arial, Helvetica, sans-serif" font-size="22" font-weight="700" fill="#14161A" text-anchor="start">Жёлтый «скотч»</text><text x="84" y="1080" font-family="'Liberation Sans', Arial, Helvetica, sans-serif" font-size="20" font-weight="400" fill="#14161A" text-anchor="start">#FFC72C</text><rect x="360" y="900" width="280" height="200" rx="20" fill="#14161A" stroke="#E4E0D8" stroke-width="2"/><text x="384" y="1050" font-family="'Liberation Sans', Arial, Helvetica, sans-serif" font-size="22" font-weight="700" fill="#FAF7F0" text-anchor="start">Графит</text><text x="384" y="1080" font-family="'Liberation Sans', Arial, Helvetica, sans-serif" font-size="20" font-weight="400" fill="#FAF7F0" text-anchor="start">#14161A</text><rect x="660" y="900" width="280" height="200" rx="20" fill="#FAF7F0" stroke="#E4E0D8" stroke-width="2"/><text x="684" y="1050" font-family="'Liberation Sans', Arial, Helvetica, sans-serif" font-size="22" font-weight="700" fill="#14161A" text-anchor="start">Тёплый белый</text><text x="684" y="1080" font-family="'Liberation Sans', Arial, Helvetica, sans-serif" font-size="20" font-weight="400" fill="#14161A" text-anchor="start">#FAF7F0</text><rect x="960" y="900" width="280" height="200" rx="20" fill="#C8925A" stroke="#E4E0D8" stroke-width="2"/><text x="984" y="1050" font-family="'Liberation Sans', Arial, Helvetica, sans-serif" font-size="22" font-weight="700" fill="#14161A" text-anchor="start">Крафт</text><text x="984" y="1080" font-family="'Liberation Sans', Arial, Helvetica, sans-serif" font-size="20" font-weight="400" fill="#14161A" text-anchor="start">#C8925A</text><rect x="1260" y="900" width="280" height="200" rx="20" fill="#8C929B" stroke="#E4E0D8" stroke-width="2"/><text x="1284" y="1050" font-family="'Liberation Sans', Arial, Helvetica, sans-serif" font-size="22" font-weight="700" fill="#FFFFFF" text-anchor="start">Сталь</text><text x="1284" y="1080" font-family="'Liberation Sans', Arial, Helvetica, sans-serif" font-size="20" font-weight="400" fill="#FFFFFF" text-anchor="start">#8C929B</text><text x="60" y="1150" font-family="'Liberation Sans', Arial, Helvetica, sans-serif" font-size="18" font-weight="400" fill="#8C929B" text-anchor="start">Шрифт в объявлениях: Arial / Liberation Sans (жирный для заголовков). Буквы логотипа нарисованы вручную — это не шрифт.</text></svg>
